<svg xmlns="http://www.w3.org/2000/svg" xmlns:xlink="http://www.w3.org/1999/xlink" width="300" zoomAndPan="magnify" viewBox="0 0 224.87999 74.999997" height="100" preserveAspectRatio="xMidYMid meet" version="1.0"><defs><g/></defs><g fill="#ffffff" fill-opacity="1"><g transform="translate(1.428925, 56.984582)"><g><path d="M 3.609375 0.171875 C 3.253906 0.171875 2.988281 0.046875 2.8125 -0.203125 C 2.632812 -0.460938 2.546875 -0.769531 2.546875 -1.125 C 2.585938 -1.71875 2.707031 -2.070312 2.90625 -2.1875 C 3.101562 -2.3125 3.476562 -2.375 4.03125 -2.375 C 5.175781 -2.375 6.023438 -2.578125 6.578125 -2.984375 C 7.128906 -3.398438 7.472656 -3.914062 7.609375 -4.53125 C 7.753906 -5.144531 7.847656 -5.945312 7.890625 -6.9375 L 7.890625 -30.484375 C 7.847656 -31.472656 7.753906 -32.269531 7.609375 -32.875 C 7.472656 -33.488281 7.128906 -34.003906 6.578125 -34.421875 C 6.023438 -34.835938 5.175781 -35.046875 4.03125 -35.046875 L 3.671875 -35.046875 C 3.273438 -35.046875 3 -35.113281 2.84375 -35.25 C 2.6875 -35.382812 2.585938 -35.734375 2.546875 -36.296875 C 2.546875 -36.648438 2.632812 -36.953125 2.8125 -37.203125 C 2.988281 -37.460938 3.253906 -37.59375 3.609375 -37.59375 C 6.179688 -37.476562 8.515625 -37.421875 10.609375 -37.421875 C 12.984375 -37.421875 15.457031 -37.476562 18.03125 -37.59375 C 18.382812 -37.59375 18.648438 -37.460938 18.828125 -37.203125 C 19.003906 -36.953125 19.09375 -36.648438 19.09375 -36.296875 C 19.050781 -35.703125 18.929688 -35.34375 18.734375 -35.21875 C 18.535156 -35.101562 18.160156 -35.046875 17.609375 -35.046875 C 16.460938 -35.046875 15.613281 -34.835938 15.0625 -34.421875 C 14.507812 -34.003906 14.160156 -33.488281 14.015625 -32.875 C 13.878906 -32.269531 13.789062 -31.472656 13.75 -30.484375 L 13.75 -19.984375 L 32.375 -19.984375 L 32.375 -30.484375 C 32.332031 -31.472656 32.242188 -32.269531 32.109375 -32.875 C 31.972656 -33.488281 31.625 -34.003906 31.0625 -34.421875 C 30.507812 -34.835938 29.660156 -35.046875 28.515625 -35.046875 L 28.171875 -35.046875 C 27.773438 -35.046875 27.488281 -35.113281 27.3125 -35.25 C 27.132812 -35.382812 27.023438 -35.734375 26.984375 -36.296875 C 26.984375 -36.648438 27.082031 -36.953125 27.28125 -37.203125 C 27.476562 -37.460938 27.734375 -37.59375 28.046875 -37.59375 C 30.617188 -37.476562 33.085938 -37.421875 35.453125 -37.421875 C 37.628906 -37.421875 39.984375 -37.476562 42.515625 -37.59375 C 42.867188 -37.59375 43.132812 -37.460938 43.3125 -37.203125 C 43.488281 -36.953125 43.578125 -36.648438 43.578125 -36.296875 C 43.546875 -35.703125 43.421875 -35.34375 43.203125 -35.21875 C 42.984375 -35.101562 42.613281 -35.046875 42.09375 -35.046875 C 40.945312 -35.046875 40.085938 -34.835938 39.515625 -34.421875 C 38.941406 -34.003906 38.585938 -33.488281 38.453125 -32.875 C 38.316406 -32.269531 38.226562 -31.472656 38.1875 -30.484375 L 38.1875 -6.9375 C 38.226562 -5.945312 38.316406 -5.144531 38.453125 -4.53125 C 38.585938 -3.914062 38.941406 -3.398438 39.515625 -2.984375 C 40.085938 -2.578125 40.945312 -2.375 42.09375 -2.375 L 42.453125 -2.375 C 42.804688 -2.375 43.070312 -2.300781 43.25 -2.15625 C 43.4375 -2.019531 43.546875 -1.675781 43.578125 -1.125 C 43.578125 -0.769531 43.488281 -0.460938 43.3125 -0.203125 C 43.132812 0.046875 42.867188 0.171875 42.515625 0.171875 C 39.984375 0.0546875 37.613281 0 35.40625 0 C 33.070312 0 30.617188 0.0546875 28.046875 0.171875 C 27.734375 0.171875 27.476562 0.046875 27.28125 -0.203125 C 27.082031 -0.460938 26.984375 -0.769531 26.984375 -1.125 C 27.023438 -1.71875 27.148438 -2.070312 27.359375 -2.1875 C 27.578125 -2.3125 27.960938 -2.375 28.515625 -2.375 C 29.660156 -2.375 30.507812 -2.578125 31.0625 -2.984375 C 31.625 -3.398438 31.972656 -3.914062 32.109375 -4.53125 C 32.242188 -5.144531 32.332031 -5.945312 32.375 -6.9375 L 32.375 -17.4375 L 13.75 -17.4375 L 13.75 -6.9375 C 13.789062 -5.945312 13.878906 -5.144531 14.015625 -4.53125 C 14.160156 -3.914062 14.507812 -3.398438 15.0625 -2.984375 C 15.613281 -2.578125 16.460938 -2.375 17.609375 -2.375 L 17.96875 -2.375 C 18.363281 -2.375 18.640625 -2.300781 18.796875 -2.15625 C 18.953125 -2.019531 19.050781 -1.675781 19.09375 -1.125 C 19.09375 -0.769531 19.003906 -0.460938 18.828125 -0.203125 C 18.648438 0.046875 18.382812 0.171875 18.03125 0.171875 C 15.5 0.0546875 13.046875 0 10.671875 0 C 8.535156 0 6.179688 0.0546875 3.609375 0.171875 Z M 3.609375 0.171875 "/></g></g></g><g fill="#ffffff" fill-opacity="1"><g transform="translate(47.505358, 56.984582)"><g><path d="M 9.96875 0.71875 C 7.59375 0.71875 5.671875 0.046875 4.203125 -1.296875 C 2.742188 -2.648438 2.015625 -4.332031 2.015625 -6.34375 C 2.015625 -8.832031 2.84375 -10.695312 4.5 -11.9375 C 6.164062 -13.1875 8.144531 -14 10.4375 -14.375 C 12.726562 -14.75 15.691406 -15.035156 19.328125 -15.234375 L 19.328125 -19.921875 C 19.328125 -21.859375 18.84375 -23.332031 17.875 -24.34375 C 16.90625 -25.351562 15.351562 -25.859375 13.21875 -25.859375 C 12 -25.859375 10.929688 -25.476562 10.015625 -24.71875 C 9.109375 -23.96875 8.65625 -22.960938 8.65625 -21.703125 C 8.65625 -21.066406 8.800781 -20.539062 9.09375 -20.125 C 9.394531 -19.71875 9.710938 -19.375 10.046875 -19.09375 C 10.390625 -18.8125 10.5625 -18.65625 10.5625 -18.625 C 10.5625 -18.382812 10.3125 -18.078125 9.8125 -17.703125 C 9.320312 -17.328125 8.71875 -17.140625 8 -17.140625 C 6.8125 -17.140625 5.875 -17.570312 5.1875 -18.4375 C 4.5 -19.3125 4.15625 -20.34375 4.15625 -21.53125 C 4.15625 -23.582031 5.070312 -25.101562 6.90625 -26.09375 C 8.75 -27.082031 10.972656 -27.578125 13.578125 -27.578125 C 16.816406 -27.578125 19.453125 -26.960938 21.484375 -25.734375 C 23.523438 -24.503906 24.546875 -22.234375 24.546875 -18.921875 L 24.546875 -5.09375 C 24.585938 -4.269531 24.84375 -3.476562 25.3125 -2.71875 C 25.789062 -1.96875 26.5625 -1.59375 27.625 -1.59375 C 27.945312 -1.59375 28.175781 -1.535156 28.3125 -1.421875 C 28.445312 -1.304688 28.515625 -1.050781 28.515625 -0.65625 C 28.515625 -0.175781 28.148438 0.171875 27.421875 0.390625 C 26.691406 0.609375 25.972656 0.71875 25.265625 0.71875 C 23.753906 0.71875 22.425781 0.285156 21.28125 -0.578125 C 20.132812 -1.453125 19.484375 -2.625 19.328125 -4.09375 C 18.492188 -2.550781 17.21875 -1.363281 15.5 -0.53125 C 13.78125 0.300781 11.9375 0.71875 9.96875 0.71875 Z M 11.859375 -2.484375 C 13.203125 -2.484375 14.445312 -2.816406 15.59375 -3.484375 C 16.738281 -4.160156 17.644531 -5.082031 18.3125 -6.25 C 18.988281 -7.414062 19.328125 -8.710938 19.328125 -10.140625 L 19.328125 -13.515625 C 15.179688 -13.203125 12.253906 -12.53125 10.546875 -11.5 C 8.847656 -10.476562 8 -8.816406 8 -6.515625 C 8 -3.828125 9.285156 -2.484375 11.859375 -2.484375 Z M 11.859375 -2.484375 "/></g></g></g><g fill="#ffffff" fill-opacity="1"><g transform="translate(77.214867, 56.984582)"><g><path d="M 2.90625 0.171875 C 2.625 0.171875 2.394531 0.0546875 2.21875 -0.171875 C 2.039062 -0.410156 1.953125 -0.691406 1.953125 -1.015625 C 1.992188 -1.523438 2.113281 -1.828125 2.3125 -1.921875 C 2.507812 -2.023438 2.863281 -2.078125 3.375 -2.078125 C 4.40625 -2.078125 5.132812 -2.253906 5.5625 -2.609375 C 6 -2.960938 6.25 -3.375 6.3125 -3.84375 C 6.375 -4.320312 6.40625 -5.078125 6.40625 -6.109375 L 6.40625 -19.6875 C 6.40625 -20.71875 6.375 -21.46875 6.3125 -21.9375 C 6.25 -22.414062 6 -22.832031 5.5625 -23.1875 C 5.132812 -23.539062 4.40625 -23.71875 3.375 -23.71875 C 2.90625 -23.71875 2.550781 -23.785156 2.3125 -23.921875 C 2.070312 -24.066406 1.953125 -24.394531 1.953125 -24.90625 C 1.953125 -25.144531 2.03125 -25.367188 2.1875 -25.578125 C 2.351562 -25.796875 2.59375 -25.925781 2.90625 -25.96875 C 5.476562 -26.363281 7.59375 -26.878906 9.25 -27.515625 C 9.925781 -27.710938 10.378906 -27.832031 10.609375 -27.875 L 10.796875 -27.875 C 11.421875 -27.875 11.734375 -27.5 11.734375 -26.75 L 11.734375 -23.0625 L 11.921875 -23.0625 C 13.304688 -24.445312 14.707031 -25.546875 16.125 -26.359375 C 17.550781 -27.171875 18.835938 -27.578125 19.984375 -27.578125 C 21.285156 -27.578125 22.320312 -27.09375 23.09375 -26.125 C 23.863281 -25.15625 24.25 -24.035156 24.25 -22.765625 C 24.25 -21.660156 23.910156 -20.671875 23.234375 -19.796875 C 22.566406 -18.929688 21.640625 -18.5 20.453125 -18.5 C 19.898438 -18.5 19.414062 -18.617188 19 -18.859375 C 18.582031 -19.097656 18.359375 -19.296875 18.328125 -19.453125 C 18.359375 -19.523438 18.550781 -19.769531 18.90625 -20.1875 C 19.269531 -20.601562 19.453125 -21.085938 19.453125 -21.640625 C 19.453125 -22.347656 19.265625 -22.921875 18.890625 -23.359375 C 18.515625 -23.796875 18.007812 -24.015625 17.375 -24.015625 C 16.695312 -24.015625 15.84375 -23.6875 14.8125 -23.03125 C 13.789062 -22.382812 12.785156 -21.566406 11.796875 -20.578125 L 11.796875 -6.109375 C 11.796875 -5.078125 11.832031 -4.320312 11.90625 -3.84375 C 11.988281 -3.375 12.25 -2.960938 12.6875 -2.609375 C 13.125 -2.253906 13.859375 -2.078125 14.890625 -2.078125 L 15.234375 -2.078125 C 15.554688 -2.078125 15.796875 -2.015625 15.953125 -1.890625 C 16.109375 -1.773438 16.207031 -1.484375 16.25 -1.015625 C 16.25 -0.691406 16.164062 -0.410156 16 -0.171875 C 15.84375 0.0546875 15.609375 0.171875 15.296875 0.171875 C 13.003906 0.0546875 10.929688 0 9.078125 0 C 7.296875 0 5.238281 0.0546875 2.90625 0.171875 Z M 2.90625 0.171875 "/></g></g></g><g fill="#ffffff" fill-opacity="1"><g transform="translate(102.417546, 56.984582)"><g><path d="M 12.921875 0.71875 C 9.765625 0.71875 7.195312 0.164062 5.21875 -0.9375 C 3.238281 -2.050781 2.25 -3.617188 2.25 -5.640625 C 2.25 -6.785156 2.59375 -7.710938 3.28125 -8.421875 C 3.976562 -9.128906 4.878906 -9.484375 5.984375 -9.484375 C 6.617188 -9.484375 7.179688 -9.304688 7.671875 -8.953125 C 8.171875 -8.597656 8.421875 -8.320312 8.421875 -8.125 C 8.421875 -8.082031 8.191406 -7.820312 7.734375 -7.34375 C 7.285156 -6.875 7.0625 -6.207031 7.0625 -5.34375 C 7.0625 -4.15625 7.601562 -3.210938 8.6875 -2.515625 C 9.769531 -1.828125 11.34375 -1.484375 13.40625 -1.484375 C 15.257812 -1.484375 16.707031 -1.882812 17.75 -2.6875 C 18.800781 -3.5 19.328125 -4.640625 19.328125 -6.109375 C 19.328125 -7.097656 19.03125 -7.90625 18.4375 -8.53125 C 17.84375 -9.164062 17.101562 -9.660156 16.21875 -10.015625 C 15.332031 -10.378906 14.097656 -10.796875 12.515625 -11.265625 C 10.578125 -11.816406 8.992188 -12.367188 7.765625 -12.921875 C 6.535156 -13.472656 5.488281 -14.300781 4.625 -15.40625 C 3.757812 -16.519531 3.328125 -17.96875 3.328125 -19.75 C 3.328125 -21.40625 3.835938 -22.828125 4.859375 -24.015625 C 5.890625 -25.203125 7.222656 -26.09375 8.859375 -26.6875 C 10.503906 -27.28125 12.234375 -27.578125 14.046875 -27.578125 C 16.378906 -27.578125 18.40625 -27.082031 20.125 -26.09375 C 21.84375 -25.101562 22.703125 -23.71875 22.703125 -21.9375 C 22.703125 -20.875 22.375 -19.960938 21.71875 -19.203125 C 21.070312 -18.453125 20.21875 -18.078125 19.15625 -18.078125 C 18.519531 -18.078125 17.953125 -18.253906 17.453125 -18.609375 C 16.960938 -18.972656 16.71875 -19.253906 16.71875 -19.453125 C 16.71875 -19.492188 16.875 -19.648438 17.1875 -19.921875 C 17.507812 -20.203125 17.796875 -20.53125 18.046875 -20.90625 C 18.304688 -21.28125 18.4375 -21.722656 18.4375 -22.234375 C 18.363281 -23.304688 17.832031 -24.132812 16.84375 -24.71875 C 15.851562 -25.3125 14.6875 -25.609375 13.34375 -25.609375 C 11.84375 -25.609375 10.523438 -25.265625 9.390625 -24.578125 C 8.265625 -23.890625 7.703125 -22.929688 7.703125 -21.703125 C 7.703125 -20.597656 7.9375 -19.71875 8.40625 -19.0625 C 8.882812 -18.40625 9.597656 -17.878906 10.546875 -17.484375 C 11.503906 -17.097656 13.007812 -16.566406 15.0625 -15.890625 C 17.15625 -15.222656 18.796875 -14.597656 19.984375 -14.015625 C 21.171875 -13.441406 22.109375 -12.671875 22.796875 -11.703125 C 23.492188 -10.742188 23.84375 -9.472656 23.84375 -7.890625 C 23.84375 -6.265625 23.363281 -4.789062 22.40625 -3.46875 C 21.457031 -2.144531 20.15625 -1.113281 18.5 -0.375 C 16.84375 0.351562 14.984375 0.71875 12.921875 0.71875 Z M 12.921875 0.71875 "/></g></g></g><g fill="#ffffff" fill-opacity="1"><g transform="translate(128.687629, 56.984582)"><g><path d="M 2.3125 0.171875 C 2 0.171875 1.757812 0.0546875 1.59375 -0.171875 C 1.4375 -0.410156 1.359375 -0.691406 1.359375 -1.015625 C 1.398438 -1.523438 1.507812 -1.828125 1.6875 -1.921875 C 1.863281 -2.023438 2.210938 -2.078125 2.734375 -2.078125 C 3.753906 -2.078125 4.484375 -2.253906 4.921875 -2.609375 C 5.359375 -2.960938 5.613281 -3.375 5.6875 -3.84375 C 5.769531 -4.320312 5.8125 -5.078125 5.8125 -6.109375 L 5.8125 -35.046875 C 5.8125 -36.078125 5.78125 -36.828125 5.71875 -37.296875 C 5.664062 -37.773438 5.421875 -38.191406 4.984375 -38.546875 C 4.546875 -38.898438 3.8125 -39.078125 2.78125 -39.078125 C 2.3125 -39.078125 1.957031 -39.144531 1.71875 -39.28125 C 1.476562 -39.414062 1.359375 -39.742188 1.359375 -40.265625 C 1.359375 -40.503906 1.4375 -40.726562 1.59375 -40.9375 C 1.757812 -41.15625 2 -41.285156 2.3125 -41.328125 C 4.289062 -41.609375 5.78125 -41.914062 6.78125 -42.25 C 7.789062 -42.582031 8.375 -42.769531 8.53125 -42.8125 C 9.289062 -43.09375 9.804688 -43.234375 10.078125 -43.234375 C 10.828125 -43.234375 11.203125 -42.851562 11.203125 -42.09375 L 11.203125 -23 L 11.328125 -23 C 12.472656 -24.070312 13.398438 -24.894531 14.109375 -25.46875 C 14.828125 -26.039062 15.75 -26.535156 16.875 -26.953125 C 18 -27.367188 19.332031 -27.578125 20.875 -27.578125 C 23.5625 -27.578125 25.691406 -26.765625 27.265625 -25.140625 C 28.847656 -23.515625 29.640625 -21.378906 29.640625 -18.734375 L 29.640625 -6.109375 C 29.640625 -5.078125 29.671875 -4.320312 29.734375 -3.84375 C 29.796875 -3.375 30.039062 -2.960938 30.46875 -2.609375 C 30.90625 -2.253906 31.640625 -2.078125 32.671875 -2.078125 L 33.03125 -2.078125 C 33.382812 -2.078125 33.628906 -2.015625 33.765625 -1.890625 C 33.910156 -1.773438 34 -1.484375 34.03125 -1.015625 C 34.03125 -0.691406 33.953125 -0.410156 33.796875 -0.171875 C 33.640625 0.0546875 33.421875 0.171875 33.140625 0.171875 C 30.804688 0.0546875 28.734375 0 26.921875 0 C 25.066406 0 23.007812 0.0546875 20.75 0.171875 C 20.4375 0.171875 20.203125 0.0546875 20.046875 -0.171875 C 19.890625 -0.410156 19.8125 -0.691406 19.8125 -1.015625 C 19.84375 -1.523438 19.945312 -1.828125 20.125 -1.921875 C 20.300781 -2.023438 20.648438 -2.078125 21.171875 -2.078125 C 22.191406 -2.078125 22.921875 -2.253906 23.359375 -2.609375 C 23.796875 -2.960938 24.039062 -3.363281 24.09375 -3.8125 C 24.15625 -4.269531 24.1875 -5.035156 24.1875 -6.109375 L 24.1875 -18.671875 C 24.1875 -20.492188 23.625 -21.890625 22.5 -22.859375 C 21.375 -23.828125 20.0625 -24.3125 18.5625 -24.3125 C 16.738281 -24.3125 15.164062 -23.851562 13.84375 -22.9375 C 12.519531 -22.03125 11.640625 -21.125 11.203125 -20.21875 L 11.203125 -6.109375 C 11.203125 -5.078125 11.234375 -4.320312 11.296875 -3.84375 C 11.359375 -3.375 11.601562 -2.960938 12.03125 -2.609375 C 12.46875 -2.253906 13.203125 -2.078125 14.234375 -2.078125 L 14.59375 -2.078125 C 14.945312 -2.078125 15.191406 -2.015625 15.328125 -1.890625 C 15.460938 -1.773438 15.550781 -1.484375 15.59375 -1.015625 C 15.59375 -0.691406 15.515625 -0.410156 15.359375 -0.171875 C 15.203125 0.0546875 14.984375 0.171875 14.703125 0.171875 C 12.410156 0.0546875 10.335938 0 8.484375 0 C 6.703125 0 4.644531 0.0546875 2.3125 0.171875 Z M 2.3125 0.171875 "/></g></g></g><g fill="#ffffff" fill-opacity="1"><g transform="translate(163.615582, 56.984582)"><g><path d="M 9.96875 0.71875 C 7.59375 0.71875 5.671875 0.046875 4.203125 -1.296875 C 2.742188 -2.648438 2.015625 -4.332031 2.015625 -6.34375 C 2.015625 -8.832031 2.84375 -10.695312 4.5 -11.9375 C 6.164062 -13.1875 8.144531 -14 10.4375 -14.375 C 12.726562 -14.75 15.691406 -15.035156 19.328125 -15.234375 L 19.328125 -19.921875 C 19.328125 -21.859375 18.84375 -23.332031 17.875 -24.34375 C 16.90625 -25.351562 15.351562 -25.859375 13.21875 -25.859375 C 12 -25.859375 10.929688 -25.476562 10.015625 -24.71875 C 9.109375 -23.96875 8.65625 -22.960938 8.65625 -21.703125 C 8.65625 -21.066406 8.800781 -20.539062 9.09375 -20.125 C 9.394531 -19.71875 9.710938 -19.375 10.046875 -19.09375 C 10.390625 -18.8125 10.5625 -18.65625 10.5625 -18.625 C 10.5625 -18.382812 10.3125 -18.078125 9.8125 -17.703125 C 9.320312 -17.328125 8.71875 -17.140625 8 -17.140625 C 6.8125 -17.140625 5.875 -17.570312 5.1875 -18.4375 C 4.5 -19.3125 4.15625 -20.34375 4.15625 -21.53125 C 4.15625 -23.582031 5.070312 -25.101562 6.90625 -26.09375 C 8.75 -27.082031 10.972656 -27.578125 13.578125 -27.578125 C 16.816406 -27.578125 19.453125 -26.960938 21.484375 -25.734375 C 23.523438 -24.503906 24.546875 -22.234375 24.546875 -18.921875 L 24.546875 -5.09375 C 24.585938 -4.269531 24.84375 -3.476562 25.3125 -2.71875 C 25.789062 -1.96875 26.5625 -1.59375 27.625 -1.59375 C 27.945312 -1.59375 28.175781 -1.535156 28.3125 -1.421875 C 28.445312 -1.304688 28.515625 -1.050781 28.515625 -0.65625 C 28.515625 -0.175781 28.148438 0.171875 27.421875 0.390625 C 26.691406 0.609375 25.972656 0.71875 25.265625 0.71875 C 23.753906 0.71875 22.425781 0.285156 21.28125 -0.578125 C 20.132812 -1.453125 19.484375 -2.625 19.328125 -4.09375 C 18.492188 -2.550781 17.21875 -1.363281 15.5 -0.53125 C 13.78125 0.300781 11.9375 0.71875 9.96875 0.71875 Z M 11.859375 -2.484375 C 13.203125 -2.484375 14.445312 -2.816406 15.59375 -3.484375 C 16.738281 -4.160156 17.644531 -5.082031 18.3125 -6.25 C 18.988281 -7.414062 19.328125 -8.710938 19.328125 -10.140625 L 19.328125 -13.515625 C 15.179688 -13.203125 12.253906 -12.53125 10.546875 -11.5 C 8.847656 -10.476562 8 -8.816406 8 -6.515625 C 8 -3.828125 9.285156 -2.484375 11.859375 -2.484375 Z M 11.859375 -2.484375 "/></g></g></g><g fill="#ffffff" fill-opacity="1"><g transform="translate(193.325091, 56.984582)"><g><path d="M 2.3125 0.171875 C 2.03125 0.171875 1.800781 0.0546875 1.625 -0.171875 C 1.445312 -0.410156 1.359375 -0.691406 1.359375 -1.015625 C 1.398438 -1.523438 1.507812 -1.828125 1.6875 -1.921875 C 1.863281 -2.023438 2.210938 -2.078125 2.734375 -2.078125 C 3.753906 -2.078125 4.484375 -2.253906 4.921875 -2.609375 C 5.359375 -2.960938 5.613281 -3.375 5.6875 -3.84375 C 5.769531 -4.320312 5.8125 -5.078125 5.8125 -6.109375 L 5.8125 -35.046875 C 5.8125 -36.078125 5.78125 -36.828125 5.71875 -37.296875 C 5.664062 -37.773438 5.421875 -38.191406 4.984375 -38.546875 C 4.546875 -38.898438 3.8125 -39.078125 2.78125 -39.078125 C 2.3125 -39.078125 1.957031 -39.144531 1.71875 -39.28125 C 1.476562 -39.414062 1.359375 -39.742188 1.359375 -40.265625 C 1.359375 -40.503906 1.4375 -40.726562 1.59375 -40.9375 C 1.757812 -41.15625 2 -41.285156 2.3125 -41.328125 C 4.800781 -41.679688 6.9375 -42.195312 8.71875 -42.875 C 9.269531 -43.070312 9.722656 -43.191406 10.078125 -43.234375 L 10.265625 -43.234375 C 10.890625 -43.234375 11.203125 -42.851562 11.203125 -42.09375 L 11.203125 -6.109375 C 11.203125 -5.078125 11.238281 -4.320312 11.3125 -3.84375 C 11.394531 -3.375 11.65625 -2.960938 12.09375 -2.609375 C 12.53125 -2.253906 13.265625 -2.078125 14.296875 -2.078125 L 14.640625 -2.078125 C 14.960938 -2.078125 15.203125 -2.015625 15.359375 -1.890625 C 15.515625 -1.773438 15.613281 -1.484375 15.65625 -1.015625 C 15.65625 -0.691406 15.578125 -0.410156 15.421875 -0.171875 C 15.265625 0.0546875 15.023438 0.171875 14.703125 0.171875 C 12.410156 0.0546875 10.335938 0 8.484375 0 C 6.703125 0 4.644531 0.0546875 2.3125 0.171875 Z M 2.3125 0.171875 "/></g></g></g><g fill="#ffffff" fill-opacity="1"><g transform="translate(210.285018, 56.984582)"><g><path d="M 6.515625 0.71875 C 5.453125 0.71875 4.5625 0.375 3.84375 -0.3125 C 3.132812 -1.007812 2.78125 -1.914062 2.78125 -3.03125 C 2.78125 -4.050781 3.132812 -4.914062 3.84375 -5.625 C 4.5625 -6.34375 5.472656 -6.703125 6.578125 -6.703125 C 7.648438 -6.703125 8.550781 -6.34375 9.28125 -5.625 C 10.007812 -4.914062 10.375 -4.050781 10.375 -3.03125 C 10.375 -1.914062 10.007812 -1.007812 9.28125 -0.3125 C 8.550781 0.375 7.628906 0.71875 6.515625 0.71875 Z M 6.515625 0.71875 "/></g></g></g></svg>